<?xml version="1.0" standalone="no"?>
<!DOCTYPE svg PUBLIC "-//W3C//DTD SVG 20010904//EN"
 "http://www.w3.org/TR/2001/REC-SVG-20010904/DTD/svg10.dtd">
<svg version="1.0" xmlns="http://www.w3.org/2000/svg"
 width="600.000000pt" height="600.000000pt" viewBox="0 0 600.000000 600.000000"
 preserveAspectRatio="xMidYMid meet">
<metadata>
Created by potrace 1.14, written by Peter Selinger 2001-2017
</metadata>
<g transform="translate(0.000000,600.000000) scale(0.100000,-0.100000)"
fill="#000000" stroke="none">
<path d="M2660 5904 c-8 -1 -62 -10 -120 -19 -58 -9 -114 -20 -125 -25 -11 -5
-58 -19 -105 -30 -131 -33 -334 -101 -346 -115 -5 -7 -75 -43 -155 -80 -79
-37 -146 -70 -149 -74 -3 -4 -36 -26 -75 -49 -38 -23 -92 -59 -120 -81 -27
-22 -85 -65 -128 -96 -88 -65 -361 -332 -394 -385 -12 -20 -34 -47 -48 -60
-15 -14 -42 -49 -61 -77 -19 -29 -38 -53 -44 -53 -5 0 -10 -4 -10 -10 0 -5
-25 -47 -57 -92 -31 -46 -71 -114 -90 -153 -46 -94 -76 -149 -86 -153 -4 -2
-5 -8 -1 -13 3 -5 1 -9 -4 -9 -9 0 -19 -22 -62 -135 -13 -33 -27 -62 -30 -65
-15 -11 -94 -287 -120 -417 -7 -35 -17 -63 -22 -63 -5 0 -6 -4 -3 -10 3 -5 2
-10 -3 -10 -26 0 -35 -135 -39 -580 -4 -438 5 -650 27 -650 5 0 6 -9 3 -20 -3
-12 0 -20 6 -20 7 0 9 -4 6 -10 -3 -6 -2 -10 4 -10 5 0 12 -19 16 -42 17 -110
111 -438 125 -438 4 0 11 -12 14 -28 11 -44 58 -152 67 -152 5 0 6 -7 3 -15
-4 -8 -1 -15 6 -15 6 0 8 -5 5 -10 -3 -6 -2 -10 3 -10 5 0 17 -19 28 -42 10
-24 22 -45 26 -48 4 -3 11 -17 16 -30 16 -40 115 -206 139 -235 13 -14 23 -30
23 -35 0 -6 4 -10 10 -10 5 0 16 -13 24 -28 8 -16 35 -50 59 -78 24 -27 47
-59 51 -71 4 -12 27 -40 52 -62 25 -22 45 -41 44 -43 -2 -9 216 -219 261 -250
30 -21 80 -62 112 -92 32 -29 70 -59 85 -67 15 -7 55 -33 90 -57 35 -24 111
-66 170 -94 58 -27 113 -57 121 -67 9 -10 41 -27 71 -39 118 -45 217 -80 267
-92 29 -8 50 -16 48 -20 -4 -7 219 -56 300 -67 28 -3 53 -11 57 -17 10 -16
806 -15 816 0 4 6 32 14 62 18 69 9 293 58 300 65 3 3 59 24 125 46 166 55
237 84 255 105 8 9 38 27 65 39 93 42 190 94 225 123 19 15 38 28 43 28 14 0
95 59 139 101 23 22 67 56 98 76 51 34 379 358 380 376 0 13 82 117 92 117 5
0 6 5 3 10 -3 6 -1 10 4 10 6 0 11 4 11 10 0 9 17 32 55 74 6 6 23 36 39 66
16 30 49 86 73 125 24 38 43 75 43 82 0 7 5 13 11 13 5 0 7 5 4 10 -3 6 -1 10
5 10 6 0 8 5 5 10 -3 6 -1 10 5 10 6 0 9 4 6 9 -4 5 -2 11 3 13 10 4 98 205
129 294 12 34 35 115 53 180 17 65 36 122 42 125 12 9 42 157 62 314 18 140
21 735 5 862 -19 149 -43 283 -51 283 -5 0 -6 7 -2 16 3 9 0 20 -7 24 -7 4
-26 59 -42 121 -37 143 -98 329 -108 329 -4 0 -11 12 -15 28 -8 36 -68 166
-77 170 -5 2 -6 8 -2 13 3 5 0 9 -6 9 -6 0 -8 5 -5 10 3 6 2 10 -3 10 -5 0
-15 14 -22 30 -7 17 -16 30 -21 30 -5 0 -9 6 -9 13 0 8 -22 51 -50 97 -28 46
-50 86 -50 90 0 4 -11 17 -25 30 -14 13 -25 29 -25 37 0 7 -4 13 -10 13 -5 0
-10 4 -10 10 0 5 -9 20 -20 32 -50 56 -111 131 -127 156 -27 43 -326 333 -387
376 -31 21 -70 52 -88 68 -18 16 -45 36 -60 44 -16 8 -28 18 -28 22 0 4 -12
13 -27 19 -16 7 -66 38 -112 68 -46 30 -90 55 -97 55 -18 0 -197 88 -205 101
-8 14 -234 89 -359 119 -52 13 -97 27 -100 31 -3 4 -69 17 -146 28 -123 18
-185 21 -465 20 -178 -1 -331 -3 -339 -5z m497 -660 c-3 -3 -12 -4 -19 -1 -8
3 -5 6 6 6 11 1 17 -2 13 -5z m147 -3 c3 -4 -6 -6 -19 -3 -14 2 -25 6 -25 8 0
8 39 4 44 -5z m-184 -5 c0 -2 -18 -6 -39 -8 -22 -2 -37 0 -35 4 5 8 74 11 74
4z m279 -12 c9 -8 -45 -2 -64 6 -14 7 -8 8 20 3 22 -3 42 -7 44 -9z m-546 -1
c-7 -2 -21 -2 -30 0 -10 3 -4 5 12 5 17 0 24 -2 18 -5z m-108 -18 c-33 -7 -62
-11 -64 -9 -6 5 63 22 94 22 18 0 6 -5 -30 -13z m798 8 c-23 -2 -64 -2 -90 0
-26 2 -7 3 42 3 50 0 71 -1 48 -3z m107 -13 c11 -8 7 -9 -15 -4 -37 8 -45 14
-19 14 10 0 26 -5 34 -10z m115 -57 c51 -46 254 -253 247 -253 -3 0 -67 62
-142 138 -88 89 -149 142 -171 150 -30 10 -30 11 -4 6 16 -3 47 -22 70 -41z
m-1125 32 c0 -14 -66 -35 -107 -34 l-48 2 55 6 c30 4 64 12 75 18 23 14 25 15
25 8z m-211 -29 c-2 -2 -17 -6 -34 -10 -22 -5 -26 -4 -15 4 14 9 59 15 49 6z
m-74 -26 c-3 -5 -11 -10 -16 -10 -6 0 -7 5 -4 10 3 6 11 10 16 10 6 0 7 -4 4
-10z m-40 -19 c-6 -4 -30 -25 -55 -46 l-45 -37 48 46 c27 25 52 46 55 46 3 0
2 -4 -3 -9z m-125 -83 c20 0 22 -1 7 -9 -11 -6 -24 -6 -36 1 -27 14 -23 16
-83 -42 -29 -29 -68 -58 -86 -65 -47 -16 -39 -7 13 18 25 12 62 42 82 66 29
35 41 43 57 38 12 -4 32 -7 46 -7z m-240 -138 c0 -5 -5 -10 -11 -10 -5 0 -7 5
-4 10 3 6 8 10 11 10 2 0 4 -4 4 -10z m2144 -68 c-5 -7 -63 41 -69 56 -3 8 12
-1 33 -19 21 -19 37 -36 36 -37z m-2187 28 c-14 -11 -28 -20 -32 -20 -10 0 38
39 49 40 5 0 -3 -9 -17 -20z m-73 -39 c-16 -10 -52 -43 -78 -72 -27 -30 -39
-40 -28 -23 27 40 108 114 124 114 7 0 -1 -8 -18 -19z m2329 -1 c12 0 36 -12
52 -26 l30 -26 -32 21 c-17 12 -42 21 -55 21 -12 0 -30 5 -38 11 -12 9 -12 10
3 5 10 -3 28 -6 40 -6z m143 -112 c43 -58 114 -187 114 -205 0 -5 -20 28 -43
72 -46 87 -105 175 -119 175 -4 0 -8 5 -8 10 0 19 10 10 56 -52z m-2625 -8
c11 0 17 -5 14 -10 -4 -7 -13 -6 -26 1 -17 8 -24 6 -40 -12 -10 -12 -19 -18
-19 -14 0 15 44 57 48 46 2 -6 13 -11 23 -11z m-64 -92 c-3 -8 -6 -5 -6 6 -1
11 2 17 5 13 3 -3 4 -12 1 -19z m37 -122 c9 -22 15 -41 12 -43 -7 -8 -46 97
-45 124 1 26 2 25 9 -7 4 -19 14 -53 24 -74z m2807 -83 c30 -88 21 -87 -11 2
-16 44 -29 82 -29 85 0 13 22 -36 40 -87z m-2765 -12 c-4 -6 -16 -11 -26 -11
-24 0 -70 21 -70 32 0 12 10 10 26 -7 16 -16 64 -21 64 -7 0 4 -4 13 -10 20
-5 7 -3 6 6 -2 9 -8 13 -19 10 -25z m-82 -51 c2 -26 0 -37 -5 -28 -10 14 -12
85 -3 76 3 -3 7 -25 8 -48z m2889 -65 c16 -45 14 -65 -2 -22 -16 42 -22 67
-18 67 3 0 12 -20 20 -45z m-2839 -16 c25 -42 16 -44 -11 -3 -12 19 -19 34
-15 34 4 0 16 -14 26 -31z m2979 -209 c29 -30 41 -45 27 -35 -52 41 -150 171
-150 198 0 6 16 -16 36 -49 19 -32 59 -84 87 -114z m-2989 53 c-20 -37 -41
-81 -45 -98 -5 -23 -7 -25 -8 -7 -1 22 79 186 87 177 2 -2 -13 -34 -34 -72z
m3061 -113 c3 -5 1 -10 -4 -10 -6 0 -11 5 -11 10 0 6 2 10 4 10 3 0 8 -4 11
-10z m-3092 -40 c3 -11 1 -18 -4 -14 -5 3 -9 12 -9 20 0 20 7 17 13 -6z m3116
-105 c-1 -18 -27 59 -28 80 0 11 7 0 15 -25 7 -25 13 -49 13 -55z m-3112 -17
c-2 -18 -4 -4 -4 32 0 36 2 50 4 33 2 -18 2 -48 0 -65z m3131 -49 c-3 -8 -7
-3 -11 10 -4 17 -3 21 5 13 5 -5 8 -16 6 -23z m-3138 -2 c0 -7 -15 -38 -34
-69 -22 -37 -30 -61 -25 -70 5 -7 9 -20 9 -28 0 -8 -8 -1 -16 17 -15 30 -15
33 5 54 11 12 28 42 38 65 19 47 23 52 23 31z m3148 -68 c-3 -33 -4 -33 -8 8
-3 23 -2 39 3 34 5 -5 7 -24 5 -42z m-8 -109 c-6 -12 -14 -20 -17 -17 -2 3 1
14 8 26 7 11 15 18 17 16 2 -2 -2 -13 -8 -25z m-3176 -69 c-3 -60 -15 -120
-25 -127 -12 -7 -11 -2 2 33 5 15 10 57 10 92 0 36 4 60 8 53 4 -7 6 -29 5
-51z m3181 21 c-3 -3 -11 0 -18 7 -9 10 -8 11 6 5 10 -3 15 -9 12 -12z m-19
-14 c4 -7 3 -8 -4 -4 -8 5 -16 -9 -24 -38 -7 -26 -15 -46 -19 -46 -4 0 0 23 9
50 16 50 25 60 38 38z m-54 -140 c-6 -6 -7 0 -4 19 5 21 7 23 10 9 2 -10 0
-22 -6 -28z m-5 -40 c-3 -8 -6 -5 -6 6 -1 11 2 17 5 13 3 -3 4 -12 1 -19z
m-3157 -7 c0 -5 -7 -12 -16 -15 -14 -5 -15 -4 -4 9 14 17 20 19 20 6z m3157
-73 c-2 -13 -4 -3 -4 22 0 25 2 35 4 23 2 -13 2 -33 0 -45z m-3220 -75 c0 -21
-1 -28 -4 -15 -2 12 -9 20 -14 17 -10 -7 -13 28 -3 38 13 12 20 -2 21 -40z
m3231 -54 l-3 -44 -5 52 c-3 29 -1 48 3 44 5 -5 7 -28 5 -52z m-3156 -49 c18
-16 27 -30 21 -30 -7 0 -13 5 -13 10 0 6 -15 19 -32 30 -18 11 -27 20 -21 20
7 0 27 -13 45 -30z m3166 -41 c-3 -20 -5 -19 -9 9 -3 20 -2 29 4 23 5 -5 7
-19 5 -32z m-3179 17 c-2 -2 -20 -6 -39 -10 -25 -4 -31 -3 -20 4 14 9 69 15
59 6z m58 -39 c-2 -6 -19 -21 -38 -35 l-34 -25 35 31 35 31 -45 2 c-45 2 -45
2 -10 8 40 8 62 3 57 -12z m30 -52 c6 -19 8 -35 3 -35 -4 0 -10 14 -14 32 l-6
32 -33 -32 c-18 -18 -37 -32 -42 -32 -9 0 66 69 76 70 3 0 10 -16 16 -35z
m3098 -29 c-4 -22 -11 -48 -16 -56 -5 -9 -6 -1 -2 20 4 19 8 47 8 62 0 14 4
24 8 21 5 -3 5 -24 2 -47z m7 -166 c8 -25 19 -54 23 -65 4 -11 -2 -6 -13 11
-11 17 -23 46 -27 65 -3 19 -8 43 -11 54 l-4 20 8 -20 c5 -11 16 -40 24 -65z
m-3152 -34 c0 -3 -4 -8 -10 -11 -5 -3 -10 -1 -10 4 0 6 5 11 10 11 6 0 10 -2
10 -4z m-28 -103 c-6 -60 -20 -90 -17 -37 2 37 13 84 19 84 2 0 1 -21 -2 -47z
m3260 -27 c21 -41 37 -146 22 -146 -5 0 -10 25 -10 54 -1 41 -10 70 -34 113
-17 32 -24 49 -15 38 9 -11 26 -37 37 -59z m-3285 -78 c-3 -8 -6 -5 -6 6 -1
11 2 17 5 13 3 -3 4 -12 1 -19z m3293 -125 c-11 -17 -11 -17 -6 0 3 10 7 26 7
35 1 15 2 15 6 0 2 -10 -1 -25 -7 -35z m-15 -50 c-5 -16 -11 -46 -14 -68 -4
-23 -9 -34 -12 -25 -6 15 19 120 28 120 3 0 2 -12 -2 -27z m-35 -118 c0 -2
-16 -12 -35 -21 -20 -9 -50 -36 -67 -60 -29 -41 -48 -60 -32 -31 24 40 68 86
96 100 37 18 38 19 38 12z m-3188 -122 c3 -29 1 -53 -4 -53 -4 0 -8 26 -8 57
0 69 7 67 12 -4z m3031 -53 c-9 -22 -18 -38 -20 -36 -5 5 24 76 31 76 2 0 -3
-18 -11 -40z m-3033 -20 c-8 -5 -11 -10 -6 -10 5 0 3 -6 -3 -13 -6 -8 -8 -17
-4 -20 3 -4 2 -7 -4 -7 -6 0 -16 -12 -22 -28 -6 -15 -22 -34 -34 -41 l-22 -14
23 25 c14 15 20 31 16 41 -4 12 -1 17 10 17 9 0 15 3 14 8 -4 13 22 52 35 52
7 0 6 -4 -3 -10z m3007 -52 c-3 -8 -6 -5 -6 6 -1 11 2 17 5 13 3 -3 4 -12 1
-19z m-15 -50 c-8 -8 -9 -4 -5 13 4 13 8 18 11 10 2 -7 -1 -18 -6 -23z m-5
-40 c-3 -8 -6 -5 -6 6 -1 11 2 17 5 13 3 -3 4 -12 1 -19z m-10 -50 c-3 -7 -5
-2 -5 12 0 14 2 19 5 13 2 -7 2 -19 0 -25z m-10 -40 c-3 -8 -6 -5 -6 6 -1 11
2 17 5 13 3 -3 4 -12 1 -19z m-13 -52 c-5 -22 -12 -26 -40 -26 -36 0 -64 -28
-64 -67 0 -12 -4 -24 -9 -27 -12 -8 3 54 20 82 12 20 33 27 65 23 7 -1 15 11
18 25 4 14 9 24 12 21 3 -2 2 -16 -2 -31z m-3080 -21 c3 -8 1 -15 -4 -15 -6 0
-10 7 -10 15 0 8 2 15 4 15 2 0 6 -7 10 -15z m26 -60 l25 -30 -27 24 c-16 14
-28 29 -28 34 0 6 1 8 3 6 1 -2 13 -17 27 -34z m38 -60 c-3 -3 -9 2 -12 12 -6
14 -5 15 5 6 7 -7 10 -15 7 -18z m2863 -111 c-37 -78 -81 -134 -103 -134 -5 0
5 12 23 27 32 27 108 170 110 207 1 18 2 19 6 3 3 -10 -13 -56 -36 -103z
m-1690 -153 c-19 -35 -143 -122 -156 -109 -2 2 21 17 52 32 30 16 67 44 81 63
30 37 37 42 23 14z m1553 -11 c-17 -33 -27 -40 -17 -12 6 17 23 42 28 42 2 0
-3 -13 -11 -30z m-17 -102 c-3 -7 -5 -2 -5 12 0 14 2 19 5 13 2 -7 2 -19 0
-25z m-1712 -8 c-3 -5 -12 -10 -18 -10 -7 0 -6 4 3 10 19 12 23 12 15 0z m734
-30 c11 -24 11 -24 -3 -6 -9 11 -16 24 -16 30 0 12 5 7 19 -24z m959 -20 c-12
-11 -54 -41 -91 -66 -67 -45 -69 -48 -62 -80 6 -33 -6 -46 -21 -23 -3 6 -30
22 -58 35 -28 13 -44 24 -36 24 8 0 35 -11 59 -25 23 -14 44 -25 45 -25 1 0 2
12 1 27 0 22 12 35 73 76 40 28 81 60 90 73 9 12 19 18 20 13 2 -5 -7 -18 -20
-29z m-1733 3 c-8 -16 -17 -37 -20 -47 -3 -10 -8 -17 -11 -14 -7 8 26 88 37
88 4 0 2 -12 -6 -27z m883 -38 c43 -28 94 -70 72 -59 -8 4 -24 15 -35 24 -11
10 -38 27 -60 38 -22 12 -34 21 -27 22 7 0 29 -11 50 -25z m-978 -54 c-8 -5
-26 -11 -40 -15 -21 -5 -20 -3 5 9 32 15 60 20 35 6z m1375 -11 c4 -6 -6 -10
-22 -9 -25 0 -26 1 -8 9 11 5 21 9 22 9 1 1 5 -3 8 -9z m93 3 c-10 -2 -28 -2
-40 0 -13 2 -5 4 17 4 22 1 32 -1 23 -4z m-339 -19 c10 -9 -35 -3 -49 6 -11 8
-7 9 15 4 17 -4 32 -8 34 -10z m191 7 c0 -12 -139 -26 -150 -15 -5 5 7 8 28 8
29 -1 105 8 120 15 1 0 2 -3 2 -8z m217 3 c-3 -3 -12 -4 -19 -1 -8 3 -5 6 6 6
11 1 17 -2 13 -5z m-1622 -14 c-11 -5 -29 -8 -40 -8 -16 0 -15 2 5 8 34 11 60
11 35 0z m-311 -22 c-3 -4 -24 -7 -47 -7 l-42 2 35 6 c48 9 60 9 54 -1z m119
5 c-7 -2 -19 -2 -25 0 -7 3 -2 5 12 5 14 0 19 -2 13 -5z m110 0 c-7 -2 -21 -2
-30 0 -10 3 -4 5 12 5 17 0 24 -2 18 -5z m-443 -33 c8 -5 11 -10 5 -10 -5 0
-21 10 -35 21 -24 20 -5 13 30 -11z m115 20 c-3 -5 -16 -10 -28 -9 -20 1 -20
2 3 9 14 4 26 8 28 9 2 1 0 -3 -3 -9z m-55 -10 c0 -5 -10 -10 -22 -9 -22 0
-22 1 -3 9 11 5 21 9 23 9 1 1 2 -3 2 -9z m-420 -261 c0 -5 -4 -9 -10 -9 -5 0
-10 7 -10 16 0 8 5 12 10 9 6 -3 10 -10 10 -16z"/>
</g>
</svg>
